<?xml version="1.0" encoding="UTF-8"?>
<!DOCTYPE svg PUBLIC "-//W3C//DTD SVG 1.1//EN" "http://www.w3.org/Graphics/SVG/1.1/DTD/svg11.dtd">
<!-- Creator: CorelDRAW 2018 (64-Bit) -->
<svg xmlns="http://www.w3.org/2000/svg" xml:space="preserve" version="1.1" style="shape-rendering:geometricPrecision; text-rendering:geometricPrecision; image-rendering:optimizeQuality; fill-rule:evenodd; clip-rule:evenodd"
viewBox="0 0 8141.84 8141.84"
 xmlns:xlink="http://www.w3.org/1999/xlink">
 <defs>
  <style type="text/css">
   <![CDATA[
    .str0 {stroke:#2B2A29;stroke-width:18.47;stroke-miterlimit:22.9256}
    .fil0 {fill:#2B2A29;fill-rule:nonzero}
   ]]>
  </style>
 </defs>
 <g id="group_1">
  <metadata id="CorelCorpID_0Corel-Layer"/>
  <path class="fil0 str0" d="M4779.69 4779.69c492.85,-492.85 739.28,-1138.81 739.28,-1784.74 0,-645.92 -246.44,-1291.89 -739.28,-1784.74 -492.85,-492.85 -1138.82,-739.28 -1784.75,-739.28 -645.93,0 -1291.88,246.43 -1784.73,739.28 -492.85,492.85 -739.29,1138.81 -739.29,1784.74 0,645.92 246.44,1291.88 739.29,1784.74 492.85,492.85 1138.81,739.28 1784.74,739.28 645.92,0 1291.88,-246.44 1784.74,-739.28zm409.69 239.92l226.65 226.64 233.51 11.49 2479.25 2479.25 -391.8 391.8 -2479.25 -2479.25 -11.49 -233.51 -226.64 -226.65c-570.94,527.5 -1297.8,791.29 -2024.66,791.29 -764.12,0 -1528.26,-291.5 -2111.24,-874.49 -582.98,-582.98 -874.48,-1347.12 -874.48,-2111.23 0,-764.12 291.5,-1528.26 874.48,-2111.24 582.98,-582.98 1347.12,-874.48 2111.23,-874.48 764.11,0 1528.26,291.5 2111.24,874.48 582.98,582.98 874.48,1347.13 874.48,2111.24 0,726.86 -263.78,1453.71 -791.28,2024.66z"/>
 </g>
</svg>
